<svg xmlns="http://www.w3.org/2000/svg" viewBox="-40 -1414.625 4247.875 1475.625" role="img" aria-label="rae">
  <title>rae — Reverse API Engineer</title>
  <path fill="#e50d75" d="M667.625 -896.875H634.375Q651.875 -970.375 654.9375 -1029.0Q658.0 -1087.625 655.8125 -1134.0Q653.625 -1180.375 652.75 -1218.875Q651.875 -1257.375 660.625 -1290.625Q672.0 -1332.625 700.875 -1353.625Q729.75 -1374.625 775.25 -1374.625Q817.25 -1374.625 835.1875 -1353.625Q853.125 -1332.625 841.75 -1290.625Q833.0 -1257.375 811.125 -1218.875Q789.25 -1180.375 763.0 -1134.0Q736.75 -1087.625 710.9375 -1029.0Q685.125 -970.375 667.625 -896.875ZM649.25 -910.0Q719.25 -933.625 776.125 -962.0625Q833.0 -990.5 880.6875 -1018.9375Q928.375 -1047.375 968.625 -1069.6875Q1008.875 -1092.0 1043.875 -1102.5Q1087.625 -1114.75 1110.8125 -1100.3125Q1134.0 -1085.875 1136.625 -1043.875Q1139.25 -1004.5 1118.25 -976.0625Q1097.25 -947.625 1054.375 -934.5Q1018.5 -924.0 976.9375 -922.6875Q935.375 -921.375 886.375 -920.9375Q837.375 -920.5 779.1875 -912.625Q721.0 -904.75 651.875 -881.125ZM659.75 -911.75 641.375 -882.875Q582.75 -905.625 527.625 -913.0625Q472.5 -920.5 423.5 -920.9375Q374.5 -921.375 333.8125 -922.6875Q293.125 -924.0 263.375 -934.5Q227.5 -947.625 221.375 -975.625Q215.25 -1003.625 240.625 -1044.75Q264.25 -1084.125 296.625 -1099.4375Q329.0 -1114.75 364.875 -1102.5Q395.5 -1092.0 423.5 -1069.6875Q451.5 -1047.375 484.3125 -1019.375Q517.125 -991.375 559.5625 -962.9375Q602.0 -934.5 659.75 -911.75ZM638.75 -905.625 660.625 -888.125Q607.25 -828.625 570.0625 -774.375Q532.875 -720.125 504.875 -674.1875Q476.875 -628.25 452.8125 -590.625Q428.75 -553.0 400.75 -525.875Q332.5 -458.5 273.0 -509.25Q245.875 -534.625 247.625 -565.6875Q249.375 -596.75 283.5 -630.0Q311.5 -657.125 350.0 -681.1875Q388.5 -705.25 435.3125 -735.0Q482.125 -764.75 533.75 -805.0Q585.375 -845.25 638.75 -905.625ZM634.375 -887.25 665.875 -904.75Q692.125 -845.25 724.0625 -804.5625Q756.0 -763.875 787.9375 -734.5625Q819.875 -705.25 845.25 -681.1875Q870.625 -657.125 883.75 -630.0Q898.625 -596.75 884.625 -566.125Q870.625 -535.5 826.875 -509.25Q786.625 -485.625 755.5625 -489.125Q724.5 -492.625 708.75 -525.875Q695.625 -553.0 691.6875 -590.625Q687.75 -628.25 684.25 -674.1875Q680.75 -720.125 670.25 -773.9375Q659.75 -827.75 634.375 -887.25Z"/>
  <g fill="#2a1f18">
    <path d="M1310.875 -731.0Q1298.875 -737.0 1299.375 -752.0Q1299.875 -767.0 1311.875 -790.0Q1335.875 -834.0 1374.375 -866.5Q1412.875 -899.0 1461.375 -917.0Q1509.875 -935.0 1561.875 -935.0Q1612.875 -935.0 1641.375 -910.0Q1669.875 -885.0 1669.875 -837.0Q1669.875 -795.0 1652.375 -740.0Q1634.875 -685.0 1611.375 -625.0Q1587.875 -565.0 1568.875 -510.5Q1549.875 -456.0 1546.875 -416.0L1530.875 -418.0Q1562.875 -536.0 1611.875 -631.5Q1660.875 -727.0 1719.875 -794.5Q1778.875 -862.0 1841.875 -898.5Q1904.875 -935.0 1966.875 -935.0Q2041.875 -935.0 2079.875 -892.5Q2117.875 -850.0 2116.875 -781.0Q2114.875 -728.0 2095.875 -690.5Q2076.875 -653.0 2047.375 -633.0Q2017.875 -613.0 1982.875 -613.0Q1944.875 -613.0 1926.875 -631.0Q1908.875 -649.0 1908.875 -672.0Q1908.875 -694.0 1915.375 -713.5Q1921.875 -733.0 1921.875 -755.0Q1921.875 -780.0 1910.375 -795.0Q1898.875 -810.0 1872.875 -810.0Q1829.875 -810.0 1773.375 -757.5Q1716.875 -705.0 1659.375 -602.5Q1601.875 -500.0 1552.875 -348.0Q1529.875 -279.0 1519.375 -237.5Q1508.875 -196.0 1508.875 -163.0Q1508.875 -139.0 1518.375 -125.5Q1527.875 -112.0 1537.875 -99.5Q1547.875 -87.0 1547.875 -64.0Q1547.875 -41.0 1526.375 -21.0Q1504.875 -1.0 1463.875 10.0Q1422.875 21.0 1361.875 21.0Q1315.875 21.0 1293.875 0.5Q1271.875 -20.0 1272.875 -62.5Q1273.875 -105.0 1295.875 -169.0L1455.875 -654.0Q1482.875 -733.0 1474.875 -765.0Q1466.875 -797.0 1439.875 -797.0Q1423.875 -797.0 1404.875 -786.5Q1385.875 -776.0 1358.875 -749.0Q1342.875 -735.0 1331.875 -731.0Q1320.875 -727.0 1310.875 -731.0Z"/>
    <path d="M2943.875 -259.0Q2923.875 -177.0 2930.875 -146.5Q2937.875 -116.0 2960.875 -116.0Q2978.875 -116.0 2996.875 -126.5Q3014.875 -137.0 3041.875 -163.0Q3057.875 -178.0 3068.875 -182.0Q3079.875 -186.0 3089.875 -181.0Q3100.875 -175.0 3100.875 -160.0Q3100.875 -145.0 3088.875 -122.0Q3052.875 -57.0 2986.375 -18.0Q2919.875 21.0 2849.875 21.0Q2791.875 21.0 2763.375 -8.0Q2734.875 -37.0 2734.875 -92.0Q2734.875 -115.0 2738.875 -143.0Q2742.875 -171.0 2752.875 -212.5Q2762.875 -254.0 2780.875 -315.5Q2798.875 -377.0 2826.875 -467.0L2845.875 -434.0Q2790.875 -289.0 2713.375 -187.0Q2635.875 -85.0 2545.375 -32.0Q2454.875 21.0 2359.875 21.0Q2254.875 21.0 2196.875 -49.5Q2138.875 -120.0 2153.875 -274.0Q2163.875 -374.0 2204.875 -470.5Q2245.875 -567.0 2313.875 -651.0Q2381.875 -735.0 2469.875 -799.0Q2557.875 -863.0 2661.875 -899.0Q2765.875 -935.0 2878.875 -935.0Q2963.875 -935.0 3019.875 -922.5Q3075.875 -910.0 3103.375 -889.5Q3130.875 -869.0 3128.875 -842.0Q3126.875 -821.0 3114.375 -809.0Q3101.875 -797.0 3088.375 -784.5Q3074.875 -772.0 3069.875 -751.0ZM2364.875 -282.0Q2354.875 -179.0 2381.375 -136.5Q2407.875 -94.0 2457.875 -94.0Q2502.875 -94.0 2554.375 -130.0Q2605.875 -166.0 2657.375 -229.5Q2708.875 -293.0 2753.875 -376.5Q2798.875 -460.0 2832.375 -556.5Q2865.875 -653.0 2881.875 -754.0Q2889.875 -806.0 2874.375 -829.0Q2858.875 -852.0 2823.875 -852.0Q2760.875 -852.0 2698.875 -820.5Q2636.875 -789.0 2580.375 -732.5Q2523.875 -676.0 2477.875 -603.0Q2431.875 -530.0 2402.375 -448.0Q2372.875 -366.0 2364.875 -282.0Z"/>
    <path d="M3377.875 -413.0Q3377.875 -413.0 3414.875 -427.0Q3451.875 -441.0 3512.375 -463.5Q3572.875 -486.0 3642.375 -512.5Q3711.875 -539.0 3778.375 -564.0Q3844.875 -589.0 3893.875 -608.0L3870.875 -576.0Q3878.875 -601.0 3882.875 -632.0Q3886.875 -663.0 3886.875 -705.0Q3886.875 -773.0 3858.375 -816.0Q3829.875 -859.0 3781.875 -859.0Q3734.875 -859.0 3684.875 -823.5Q3634.875 -788.0 3590.875 -725.0Q3546.875 -662.0 3516.875 -578.0Q3486.875 -494.0 3479.875 -397.0Q3468.875 -250.0 3524.875 -176.0Q3580.875 -102.0 3683.875 -102.0Q3745.875 -102.0 3803.375 -125.5Q3860.875 -149.0 3907.375 -194.5Q3953.875 -240.0 3979.875 -304.0Q3993.875 -326.0 4005.375 -333.5Q4016.875 -341.0 4029.875 -341.0Q4045.875 -341.0 4054.875 -327.5Q4063.875 -314.0 4056.875 -283.0Q4042.875 -206.0 3984.375 -136.0Q3925.875 -66.0 3827.875 -22.5Q3729.875 21.0 3594.875 21.0Q3479.875 21.0 3404.375 -22.5Q3328.875 -66.0 3294.875 -146.5Q3260.875 -227.0 3267.875 -339.0Q3275.875 -460.0 3323.375 -567.0Q3370.875 -674.0 3448.375 -757.0Q3525.875 -840.0 3622.875 -888.0Q3719.875 -936.0 3826.875 -936.0Q3904.875 -936.0 3958.375 -905.0Q4011.875 -874.0 4039.875 -822.0Q4067.875 -770.0 4071.875 -706.0Q4073.875 -691.0 4080.875 -681.0Q4087.875 -671.0 4100.875 -671.0Q4114.875 -672.0 4121.875 -665.5Q4128.875 -659.0 4128.875 -647.0Q4128.875 -632.0 4115.875 -618.5Q4102.875 -605.0 4064.875 -592.0Q4024.875 -578.0 3959.875 -554.5Q3894.875 -531.0 3818.375 -503.5Q3741.875 -476.0 3665.875 -448.5Q3589.875 -421.0 3526.375 -398.0Q3462.875 -375.0 3424.375 -361.0Q3385.875 -347.0 3385.875 -347.0Z"/>
  </g>
</svg>
